<svg version="1.2" xmlns="http://www.w3.org/2000/svg" viewBox="0 0 281 290" width="281" height="290">
	<title>noufan logo-ai</title>
	<defs>
		<clipPath clipPathUnits="userSpaceOnUse" id="cp1">
			<path d="m230.01 288.19c-13.07-0.02-27.38-5.5-40.69-18.07l-0.74-0.6-90.6-81.31 42.51-43.11 135.43-137.35-0.26 233.98c-0.01 13.17-4.75 24.35-12.32 32.36-4.28 4.52-9.33 8.08-14.84 10.46-5.47 2.36-11.74 3.65-18.49 3.64z"/>
		</clipPath>
		<linearGradient id="g1" x1="4" y1="98.2" x2="182.5" y2="-83.9" gradientUnits="userSpaceOnUse">
			<stop offset="0" stop-color="#335aa8"/>
			<stop offset="1" stop-color="#36ace1"/>
		</linearGradient>
		<clipPath clipPathUnits="userSpaceOnUse" id="cp2">
			<path d="m49.15 3.86c13.07 0.02 27.38 5.5 40.68 18.07l0.75 0.6 90.6 81.31-42.51 43.11-135.43 137.35 0.25-233.98c0.02-13.17 4.76-24.35 12.33-32.35 4.27-4.53 9.33-8.09 14.84-10.47 5.47-2.36 11.74-3.65 18.49-3.64z"/>
		</clipPath>
		<linearGradient id="g2" x1="315.3" y1="75.3" x2="133.2" y2="365.8" gradientUnits="userSpaceOnUse">
			<stop offset="0" stop-color="#44ba6f"/>
			<stop offset="1" stop-color="#2eaf61"/>
		</linearGradient>
	</defs>
	<style>
		.s0 { fill: url(#g1) } 
		.s1 { fill: #212463 } 
		.s2 { fill: url(#g2) } 
		.s3 { fill: #a0d5b0 } 
		.s4 { fill: #1c5f33 } 
		.s5 { fill: #4fc9f2 } 
	</style>
	<g id="Layer 1">
		<g id="&lt;Group&gt;">
			<g id="&lt;Group&gt;">
				<g id="&lt;Clip Group&gt;" clip-path="url(#cp1)">
					<path id="&lt;Path&gt;" class="s0" d="m101.9 4l179 3.9-6 281.5-179-3.8z"/>
				</g>
				<path id="&lt;Path&gt;" class="s1" d="m160.1 243.9l-62.1-55.7 42.5-43.1 40.7-41.3c0 0-71.6 83.5-21.1 140.1z"/>
				<g id="&lt;Clip Group&gt;" clip-path="url(#cp2)">
					<path id="&lt;Path&gt;" class="s2" d="m4.2 2.6l179 3.9-5.9 281.5-179-3.8z"/>
				</g>
				<path id="&lt;Path&gt;" class="s3" d="m119.1 48.1l62.1 55.7-42.5 43.1-40.7 41.3c0 0 71.6-83.4 21.1-140.1z"/>
				<path id="&lt;Path&gt;" class="s4" d="m44.5 242.5l-41.3 41.8 0.3-234c0-13.2 4.8-24.3 12.3-32.3 4.3-4.6 9.4-8.1 14.9-10.5 5.4-2.4 11.7-3.6 18.4-3.6 13.1 0 27.4 5.5 40.7 18l0.8 0.6 10.6 9.6q-5.5-1.3-10.9-1.3c-6.7 0-13 1.3-18.5 3.7-5.5 2.3-10.5 5.9-14.8 10.4-7.6 8-12.3 19.2-12.3 32.4z"/>
				<path id="&lt;Path&gt;" class="s5" d="m234.7 49.6l41.2-41.8-0.2 233.9c-0.1 13.2-4.8 24.4-12.4 32.4-4.2 4.5-9.3 8.1-14.8 10.4-5.5 2.4-11.7 3.7-18.5 3.7-13.1 0-27.4-5.5-40.7-18.1l-0.7-0.6-10.7-9.5q5.6 1.2 11 1.2c6.7 0 13-1.2 18.4-3.6 5.5-2.4 10.6-5.9 14.9-10.5 7.5-8 12.3-19.2 12.3-32.3z"/>
			</g>
		</g>
	</g>
</svg>