<svg version="1.2" xmlns="http://www.w3.org/2000/svg" viewBox="0 0 440 109" width="440" height="109">
	<title>noufan logo-ai</title>
	<style>
		.s0 { fill: #13325e } 
		.s1 { fill: #0a0b0b } 
	</style>
	<g id="Layer 1">
		<g id="&lt;Group&gt;">
			<g id="&lt;Group&gt;">
				<path id="&lt;Compound Path&gt;" class="s0" d="m61.5 19.2q1.8 2.6 2.6 4.5 1.2 2.3 2.2 6.1 1.3 4.5 1.3 12.4v29.7h-12.2v-31.1q0-15.8-13.1-21.1-3-0.9-5.2-0.9-2.3 0-5.3 0.9-13.1 5.3-13.1 21.1v31.1h-12.2v-29.7q0-7.9 1.3-12.4 1-3.8 2.2-6.1 0.8-1.9 2.7-4.5 9.8-13.1 24.4-13.1 14.5 0 24.4 13.1z"/>
				<path id="&lt;Compound Path&gt;" fill-rule="evenodd" class="s0" d="m109.5 6.1h0.4q14 0 23.9 12.5 6.4 9.3 6.4 20.2v0.5q0 15.2-11.7 25.8-8.5 6.8-18.7 6.8h-0.4q-13.9 0-23.8-12.3-3.5-5.3-4.8-9.6-1.7-5.5-1.7-10.8v-0.4q0-14.9 11.3-25.6 7.7-5.9 14-6.6 2-0.5 5.1-0.5zm-18.3 32.8q0 8.6 6.2 15.1 5.6 5.1 11.6 5.1h1.2q4.9 0 10-3.6 5.2-4.1 7-10.6 0.6-1.7 0.9-5.8 0-8.4-6-14.8-5.7-5.5-12.4-5.5-7.9 0-14 7.2-2.6 3.6-3.3 6.2-1.2 3.5-1.2 6.7z"/>
				<path id="&lt;Compound Path&gt;" class="s0" d="m182.3 71.9q-14.6 0-24.4-13-1.9-2.6-2.7-4.6-1.2-2.2-2.2-6-1.3-4.6-1.3-12.4v-29.8h12.2v31.2q0 15.7 13.1 21 3 0.9 5.3 1 2.2-0.1 5.2-1 13.1-5.3 13.1-21v-31.2h12.2v29.8q0 7.8-1.2 12.4-1.1 3.8-2.3 6-0.8 1.9-2.6 4.6-9.8 13-24.4 13z"/>
				<path id="&lt;Compound Path&gt;" fill-rule="evenodd" class="s0" d="m285.4 6.1v12.8h-28.3q-7.4 0-11.4 2.9-5.6 3.3-8.3 11.6-0.8 2-0.8 11.4v27.1h-12.3v-29.4q0-10.8 2.6-16.6 2.1-5.3 6.1-9.7 4.6-4.9 8.7-6.8 6.6-3.2 12.1-3.2zm-31.7 26.6h31.7v12.7h-31.7z"/>
				<path id="&lt;Compound Path&gt;" class="s0" d="m330 6h28v65.9h-12.1v-53h-10.9-2.6q-9.1 0-10.1 0.8-5.5 1.6-9.2 6.9-4.1 6.2-4.1 12.4 0 7.7 5.5 14.2 3.7 3.8 6.3 4.5 2.7 1.5 9.2 1.5h8.4v12.7h-10.1q-11.3 0-19.1-6.4-5.6-4.8-7.5-8.8-4.8-8.1-4.8-16.6v-1.9q0-11.9 8.3-21.8 4.9-5.3 8.1-6.7 2.3-1.3 6.3-2.6 3.5-1.1 10.4-1.1z"/>
				<path id="&lt;Compound Path&gt;" class="s0" d="m424.5 19.2q1.9 2.6 2.7 4.5 1.1 2.3 2.2 6.1 1.3 4.5 1.3 12.4v29.7h-12.2v-31.1q0-15.8-13.1-21.1-3-0.9-5.3-0.9-2.3 0-5.2 0.9-13.1 5.3-13.1 21.1v31.1h-12.3v-29.7q0-7.9 1.3-12.4 1.1-3.8 2.2-6.1 0.8-1.9 2.7-4.5 9.8-13.1 24.4-13.1 14.6 0 24.4 13.1z"/>
			</g>
			<g id="&lt;Group&gt;">
				<path id="&lt;Compound Path&gt;" fill-rule="evenodd" class="s1" d="m6.7 86h5.7c4.5 0 7.5 3.9 7.5 9.9 0 5.9-2.9 10.2-7.6 10.2h-5.6zm2.1 17.8h3.4c3.7 0 5.5-3.4 5.5-7.9 0-4-1.6-7.6-5.5-7.6h-3.4z"/>
				<path id="&lt;Compound Path&gt;" fill-rule="evenodd" class="s1" d="m37.1 96c0 5.5-2.5 10.4-7.5 10.4-4.7 0-7.3-4.6-7.3-10.3 0-5.8 2.7-10.4 7.5-10.4 4.5 0 7.3 4.3 7.3 10.3zm-12.6 0c0 4.3 1.8 8.1 5.2 8.1 3.7 0 5.2-3.8 5.2-8.1 0-4.3-1.7-8-5.2-8-3.6 0-5.2 3.7-5.2 8z"/>
				<path id="&lt;Compound Path&gt;" class="s1" d="m53 100.4c-0.7 3.4-2.7 6-6.3 6-4.8 0-7.2-4.6-7.2-10.3 0-5.4 2.4-10.4 7.3-10.4 3.7 0 5.8 2.7 6.2 6.1h-2.1c-0.6-2.2-1.7-3.8-4.2-3.8-3.5 0-5 4-5 8 0 4 1.4 8.1 5.1 8.1 2.4 0 3.5-1.7 4.1-3.7z"/>
				<path id="&lt;Compound Path&gt;" class="s1" d="m58.1 86v12.1c0 4.8 2 6 4.1 6 2.3 0 4-1.3 4-6v-12.1h2.2v12c0 6.5-2.9 8.4-6.3 8.4-3.3 0-6.2-2.1-6.2-8.2v-12.2z"/>
				<path id="&lt;Compound Path&gt;" class="s1" d="m86.1 97.5c0-3.7 0.1-7.5 0.1-9.6-0.7 3.3-3.3 11.9-5.1 18.2h-1.9c-1.4-5.1-4.1-14.8-4.8-18.2h-0.1c0.2 2.3 0.2 6.8 0.2 10.2v8h-2v-20.1h3.2c1.8 6.3 4 14.3 4.6 16.9 0.4-2 3-10.8 4.8-16.9h3.1v20.1h-2.1z"/>
				<path id="&lt;Compound Path&gt;" class="s1" d="m102.5 96.7h-7.9v7.1h8.7l-0.3 2.3h-10.5v-20.1h10.4v2.3h-8.3v6.1h7.9z"/>
				<path id="&lt;Compound Path&gt;" class="s1" d="m106.2 106.1v-20.1h2.8c2.3 4.7 7.2 14.7 8.1 16.9h0.1c-0.2-2.6-0.2-5.8-0.2-9v-7.9h2v20.1h-2.6c-2.1-4.4-7.3-15.1-8.3-17.4 0.1 2.3 0.1 5.7 0.1 9.4v8z"/>
				<path id="&lt;Compound Path&gt;" class="s1" d="m126.6 88.3h-5.1v-2.3h12.4v2.3h-5.2v17.8h-2.1z"/>
				<path id="&lt;Compound Path&gt;" class="s1" d="m137.3 100.5c0.4 2.4 1.7 3.7 4 3.7 2.5 0 3.5-1.4 3.5-3.3 0-2.1-0.8-3.2-4-4.2-3.7-1.1-5-2.7-5-5.6 0-2.9 1.7-5.4 5.3-5.4 3.7 0 5.3 2.8 5.5 5.4h-2.1c-0.3-1.8-1.2-3.2-3.5-3.2-2 0-3 1.1-3 3 0 1.9 0.9 2.6 3.6 3.5 4.6 1.4 5.4 3.6 5.4 6.2 0 3.2-1.9 5.8-5.8 5.8-4 0-5.7-2.8-6.1-5.9z"/>
				<path id="&lt;Compound Path&gt;" class="s1" d="m168.6 100.4c-0.8 3.4-2.8 6-6.4 6-4.7 0-7.1-4.6-7.1-10.3 0-5.4 2.4-10.4 7.2-10.4 3.8 0 5.8 2.7 6.3 6.1h-2.2c-0.5-2.2-1.7-3.8-4.2-3.8-3.5 0-4.9 4-4.9 8 0 4 1.3 8.1 5 8.1 2.5 0 3.5-1.7 4.1-3.7z"/>
				<path id="&lt;Compound Path&gt;" class="s1" d="m171.7 86h2.1v17.8h8.3l-0.3 2.3h-10.1z"/>
				<path id="&lt;Compound Path&gt;" class="s1" d="m194.4 96.7h-8v7.1h8.7l-0.2 2.3h-10.5v-20.1h10.3v2.3h-8.3v6.1h8z"/>
				<path id="&lt;Compound Path&gt;" fill-rule="evenodd" class="s1" d="m200.6 100.1l-1.7 6h-2.1l5.7-20.1h2.6l5.9 20.1h-2.3l-1.7-6zm5.8-2.3c-1.5-5.3-2.4-8.1-2.7-9.6-0.4 1.7-1.4 5.1-2.6 9.6z"/>
				<path id="&lt;Compound Path&gt;" fill-rule="evenodd" class="s1" d="m215.6 97.3v8.8h-2.1v-20.1h6.2c3.3 0 5 2.3 5 5.4 0 2.6-1.1 4.2-2.7 4.7 1.3 0.5 2.5 1.7 2.5 5.2v0.8c0 1.4-0.1 3.2 0.2 4h-2.1c-0.3-0.9-0.3-2.4-0.3-4.3v-0.4c0-2.9-0.6-4.1-3.4-4.1zm0-2.3h3.4c2.5 0 3.5-1.1 3.5-3.4 0-2.1-1.1-3.3-3.2-3.3h-3.7z"/>
				<path id="&lt;Compound Path&gt;" class="s1" d="m230.4 86v20.1h-2.1v-20.1z"/>
				<path id="&lt;Compound Path&gt;" class="s1" d="m234.7 106.1v-20.1h2.8c2.3 4.7 7.3 14.7 8.2 16.9-0.1-2.6-0.1-5.8-0.1-9v-7.9h2v20.1h-2.7c-2.1-4.4-7.2-15.1-8.2-17.4h-0.1c0.1 2.3 0.1 5.7 0.1 9.4v8z"/>
				<path id="&lt;Compound Path&gt;" class="s1" d="m264.7 106.1h-1.6q-0.2-0.6-0.2-2.7c-0.7 1.4-2.1 3-5 3-4.6 0-7-4.4-7-10.1 0-6 2.6-10.6 7.4-10.6 3.7 0 6 2.6 6.5 6.1h-2.1c-0.6-2.2-1.8-3.8-4.4-3.8-3.7 0-5.2 3.7-5.2 8.1 0 4.2 1.5 8 5.1 8 3.5 0 4.4-3 4.4-6.3v-0.3h-4.5v-2.2h6.6z"/>
				<path id="&lt;Compound Path&gt;" class="s1" d="m275.2 100.5c0.5 2.4 1.8 3.7 4.1 3.7 2.5 0 3.4-1.4 3.4-3.3 0-2.1-0.7-3.2-3.9-4.2-3.8-1.1-5.1-2.7-5.1-5.6 0-2.9 1.7-5.4 5.3-5.4 3.8 0 5.4 2.8 5.6 5.4h-2.2c-0.3-1.8-1.2-3.2-3.5-3.2-1.9 0-3 1.1-3 3 0 1.9 0.9 2.6 3.7 3.5 4.5 1.4 5.3 3.6 5.3 6.2 0 3.2-1.9 5.8-5.8 5.8-4 0-5.7-2.8-6-5.9z"/>
				<path id="&lt;Compound Path&gt;" class="s1" d="m298 96.7h-7.9v7.1h8.7l-0.3 2.3h-10.5v-20.1h10.4v2.3h-8.3v6.1h7.9z"/>
				<path id="&lt;Compound Path&gt;" fill-rule="evenodd" class="s1" d="m303.8 97.3v8.8h-2.1v-20.1h6.2c3.3 0 5 2.3 5 5.4 0 2.6-1.2 4.2-2.7 4.7 1.3 0.5 2.4 1.7 2.4 5.2v0.8c0 1.4 0 3.2 0.2 4h-2c-0.3-0.9-0.3-2.4-0.3-4.3v-0.4c0-2.9-0.6-4.1-3.5-4.1zm0-2.3h3.5c2.4 0 3.5-1.1 3.5-3.4 0-2.1-1.1-3.3-3.3-3.3h-3.7z"/>
				<path id="&lt;Compound Path&gt;" class="s1" d="m320.6 106.1l-5.8-20.1h2.2l2.8 10c0.9 3 1.7 6 2 7.8h0.1c0.3-1.7 1.2-4.8 2-7.7l3-10.1h2.1l-5.9 20.1z"/>
				<path id="&lt;Compound Path&gt;" class="s1" d="m333.6 86v20.1h-2.2v-20.1z"/>
				<path id="&lt;Compound Path&gt;" class="s1" d="m350.4 100.4c-0.8 3.4-2.8 6-6.4 6-4.7 0-7.1-4.6-7.1-10.3 0-5.4 2.4-10.4 7.2-10.4 3.8 0 5.8 2.7 6.3 6.1h-2.2c-0.5-2.2-1.7-3.8-4.2-3.8-3.5 0-4.9 4-4.9 8 0 4 1.3 8.1 5 8.1 2.5 0 3.5-1.7 4.1-3.7z"/>
				<path id="&lt;Compound Path&gt;" class="s1" d="m363.5 96.7h-8v7.1h8.7l-0.2 2.3h-10.5v-20.1h10.3v2.3h-8.3v6.1h8z"/>
				<path id="&lt;Compound Path&gt;" class="s1" d="m368.3 100.5c0.4 2.4 1.7 3.7 4 3.7 2.5 0 3.5-1.4 3.5-3.3 0-2.1-0.8-3.2-4-4.2-3.7-1.1-5-2.7-5-5.6 0-2.9 1.7-5.4 5.3-5.4 3.8 0 5.3 2.8 5.5 5.4h-2.1c-0.3-1.8-1.2-3.2-3.5-3.2-2 0-3 1.1-3 3 0 1.9 0.9 2.6 3.6 3.5 4.6 1.4 5.4 3.6 5.4 6.2 0 3.2-1.9 5.8-5.8 5.8-4 0-5.7-2.8-6.1-5.9z"/>
				<path id="&lt;Compound Path&gt;" class="s1" d="m386.9 86h2.2v17.8h8.3l-0.3 2.3h-10.2z"/>
				<path id="&lt;Compound Path&gt;" class="s1" d="m400 106.1v-4.3h2.1v4.3z"/>
				<path id="&lt;Compound Path&gt;" class="s1" d="m405.3 86h2.2v17.8h8.3l-0.3 2.3h-10.2z"/>
				<path id="&lt;Compound Path&gt;" class="s1" d="m418.4 106.1v-4.3h2.1v4.3z"/>
				<path id="&lt;Compound Path&gt;" class="s1" d="m435.9 100.4c-0.7 3.4-2.7 6-6.4 6-4.7 0-7.1-4.6-7.1-10.3 0-5.4 2.4-10.4 7.2-10.4 3.8 0 5.8 2.7 6.3 6.1h-2.1c-0.6-2.2-1.7-3.8-4.3-3.8-3.5 0-4.9 4-4.9 8 0 4 1.4 8.1 5 8.1 2.5 0 3.6-1.7 4.2-3.7z"/>
			</g>
		</g>
	</g>
</svg>